<?xml version="1.0" encoding="UTF-8"?>
<svg width="180" height="38" viewBox="0 0 180 38" fill="none" xmlns="http://www.w3.org/2000/svg">
  <path d="M25.2086 0L50.4171 38H0L25.2086 0Z" fill="black"/>
  <path d="M85.8106 25.16H101.438C101.438 20.5555 97.7874 17.7219 93.6241 17.7219C89.3871 17.7219 85.8106 20.5555 85.8106 25.16ZM109.51 28.5232H85.8106C85.8875 33.8948 89.4641 36.4977 94.4712 36.4977C98.8621 36.4977 102.054 34.6651 102.977 31.4466H109.203C107.663 38.0254 102.285 41.7821 94.4712 41.7821C85.0403 41.7821 78.9385 35.2731 78.9385 25.1601C78.9385 15.0471 85.1183 8.5381 93.6241 8.5381C102.208 8.5381 109.587 14.7393 109.587 25.16C109.587 26.1846 109.548 27.2092 109.51 28.5232Z" fill="black"/>
  <path d="M179.906 40.8471H172.804V35.8886H172.573C170.802 39.3834 167.439 41.7821 162.51 41.7821C154.003 41.7821 149.151 35.5808 149.151 27.3245C149.151 19.6058 153.541 12.4809 162.972 12.4809C167.824 12.4809 170.572 14.2624 172.573 17.5983H172.804V0.461426H179.906V40.8471ZM163.358 35.8886C169.306 35.8886 172.65 31.5619 172.65 25.3524C172.65 19.2981 169.306 18.0458 163.819 18.0458C158.318 18.0458 156.253 21.3797 156.253 26.7089C156.253 32.1156 158.318 35.8886 163.358 35.8886Z" fill="black"/>
  <path d="M113.544 40.8471V13.3748H120.646V40.8471H113.544ZM113.082 4.22599C113.082 1.84349 115.082 0 117.314 0C119.546 0 121.546 1.84349 121.546 4.22599C121.546 6.60849 119.546 8.45198 117.314 8.45198C115.083 8.45198 113.082 6.60849 113.082 4.22599Z" fill="black"/>
  <path d="M140.256 13.6594C149.282 13.6594 153.526 18.4146 153.526 25.6245C153.526 32.8345 149.282 37.5897 140.256 37.5897C131.229 37.5897 126.985 32.8345 126.985 25.6245C126.985 18.4146 131.229 13.6594 140.256 13.6594ZM140.256 31.9435C144.571 31.9435 146.636 29.6233 146.636 25.6245C146.636 21.6257 144.571 19.3055 140.256 19.3055C135.941 19.3055 133.876 21.6257 133.876 25.6245C133.876 29.6233 135.941 31.9435 140.256 31.9435Z" fill="black"/>
  <path d="M68.7228 13.3748H75.2867L67.2837 22.7962L75.9806 40.8471H69.2318L63.1284 29.3857L56.4801 36.498V40.8471H49.3784V0.461426H56.4801V28.4457L68.7228 13.3748Z" fill="black"/>
</svg> 