<svg width="64" height="64" viewBox="0 0 64 64" fill="none" xmlns="http://www.w3.org/2000/svg">
<path d="M32 0C14.3267 0 0 14.3267 0 32C0 49.6733 14.3267 64 32 64C49.6733 64 64 49.6733 64 32C64 14.3267 49.6733 0 32 0ZM24.3698 47.6325H39.6302L32 32.705L24.3698 47.6325ZM22.0075 43.4905L14.3761 28.5664H7.15664C10.3905 37.9562 15.7047 42.8388 22.0075 43.4905ZM7.78642 24.3698C9.39185 24.3698 25.6571 24.3698 27.2929 24.3698L30.3346 18.9628L24.8462 8.45012C16.7398 10.9264 10.3905 16.8507 7.78642 24.3698ZM39.153 8.45012L33.6654 18.9628L36.7063 24.3698H56.2136C53.6095 16.8507 47.2602 10.9264 39.153 8.45012ZM41.9925 43.4905C48.2953 42.8388 53.6095 37.9562 56.8434 28.5664H49.6239L41.9925 43.4905Z" fill="black"/>
</svg> 